<?xml version="1.0" encoding="utf-8"?>
<!-- Generator: Adobe Illustrator 24.2.3, SVG Export Plug-In . SVG Version: 6.00 Build 0)  -->
<svg version="1.1" id="Layer_1" xmlns="http://www.w3.org/2000/svg" xmlns:xlink="http://www.w3.org/1999/xlink" x="0px" y="0px"
	 viewBox="0 0 792 398.6" style="enable-background:new 0 0 792 398.6;" xml:space="preserve">
<style type="text/css">
	.st0{fill:#2D2D2D;}
	.st1{fill:#AD868D;}
	.st2{fill:#4F4F4F;}
	.st3{fill:#CCCCCC;}
	.st4{fill:#FFFFFF;}
	.st5{fill:#3D3D3D;}
	.st6{fill:#E6E6E6;}
	.st7{fill:#17939A;}
	.st8{fill:#FFB8B8;}
	.st9{fill:#0C7777;}
	.st10{fill:#F2F2F2;}
</style>
<path class="st0" d="M635.1,79.8h-58c-2.5,0-4.5-2-4.5-4.5v-21c0-18.5,15-33.5,33.5-33.5s33.5,15,33.5,33.5v21
	C639.6,77.8,637.5,79.8,635.1,79.8z"/>
<polygon class="st1" points="544.9,385.9 533.1,382.4 541.1,335.4 558.4,340.6 "/>
<path class="st0" d="M544.4,398.2l-37.9-11.4l0.1-0.5c2.4-8.1,11-12.8,19.2-10.3l0,0l0,0l23.2,7L544.4,398.2z"/>
<polygon class="st1" points="681.6,386.3 669.4,386.3 663.5,339 681.6,339 "/>
<path class="st0" d="M684.8,398.2h-39.5v-0.5c0-8.5,6.9-15.4,15.4-15.4l0,0l0,0h24.1V398.2z"/>
<circle class="st1" cx="607.4" cy="55.1" r="24.6"/>
<path class="st2" d="M578.1,358.5c-0.4,0-0.9-0.1-1.3-0.2l-49.2-12.8c-2.8-0.7-4.5-3.6-3.8-6.4c0-0.2,0.1-0.3,0.2-0.5
	c29.8-80.3,54.3-149.5,51-183.8c-4.6-9.3-7-19.6-6.9-30l0.4-34.7c0-3.8,3.1-6.8,6.9-6.7c0.5,0,1,0.1,1.4,0.2l55,12.4l0.3,1
	c4.4,14.8,4,30.6-1.3,45.1c32.5,29.3,54.2,125.5,66.8,201.2c0.4,2.5-1,4.9-3.3,5.8h-0.2l-38.6,3.8c-2.7,1-5.8-0.4-6.8-3.1
	c0-0.1-0.1-0.2-0.1-0.3L615.5,240l-32.3,114.6C582.6,356.9,580.5,358.5,578.1,358.5z"/>
<path class="st0" d="M630.7,55.8h-32.4c-1.3,0-2.3-0.9-2.5-2.2l-0.4-3.4c-0.1-0.8-0.9-1.4-1.7-1.3c-0.5,0.1-1,0.4-1.2,0.9l-2.1,4.6
	c-0.4,0.9-1.3,1.4-2.3,1.4h-4.9c-1.4,0-2.5-1.1-2.5-2.5c0-0.1,0-0.2,0-0.2l1.9-20.3c0.1-0.9,0.6-1.7,1.4-2c14.9-6.9,29.9-6.9,44.8,0
	c0.8,0.4,1.3,1.1,1.4,1.9l2.9,20.3c0.2,1.4-0.8,2.6-2.1,2.8C631,55.8,630.9,55.8,630.7,55.8z"/>
<path class="st3" d="M557.6,364.8L249.7,339c-4.7-0.4-8.1-4.5-7.8-9.2l11.6-138.5c0.4-4.7,4.5-8.1,9.2-7.8l307.9,25.8
	c4.7,0.4,8.1,4.5,7.8,9.2L566.8,357C566.4,361.7,562.3,365.2,557.6,364.8z"/>
<path class="st4" d="M553.4,355.4l-298-25c-2.5-0.2-4.3-2.4-4.1-4.9L262.1,197c0.2-2.5,2.4-4.3,4.9-4.1l298,25
	c2.5,0.2,4.3,2.4,4.1,4.9l-10.8,128.5C558,353.8,555.8,355.6,553.4,355.4z"/>
<path class="st5" d="M476.6,307.1L476.6,307.1c21.4,0.4,39.1-16.5,39.5-37.9c0.4-19.5-13.7-36.2-33-39c-0.2,0-0.5,0-0.7,0.2
	s-0.3,0.4-0.3,0.6l-6.3,75.1C475.8,306.7,476.1,307.1,476.6,307.1L476.6,307.1z"/>
<path class="st6" d="M451.1,240.4c0.3,0,0.6,0.2,0.8,0.4l24,28.4c0.2,0.2,0.3,0.5,0.3,0.8l-3,36c0,0.3-0.2,0.6-0.4,0.8
	c-0.2,0.2-0.6,0.3-0.9,0.2c-21.3-3.2-35.9-22.9-32.8-44.2c1.2-8.4,5.2-16.1,11.2-22C450.4,240.5,450.7,240.4,451.1,240.4
	L451.1,240.4z"/>
<path class="st7" d="M478.3,229.6c0.3,0,0.6,0.2,0.8,0.4c0.2,0.2,0.3,0.5,0.3,0.9l-2.7,32.4c-0.1,0.6-0.6,1.1-1.2,1
	c-0.3,0-0.6-0.2-0.8-0.4l-20.9-24.7c-0.4-0.5-0.3-1.2,0.1-1.6l0,0C460.9,232.2,469.5,229.4,478.3,229.6L478.3,229.6z"/>
<path class="st7" d="M459.9,321.6c-0.3,3.8-3.7,6.7-7.5,6.3s-6.7-3.7-6.3-7.5s3.7-6.7,7.5-6.3C457.4,314.4,460.2,317.8,459.9,321.6z
	"/>
<path class="st5" d="M479.7,323.3c-0.3,3.8-3.7,6.7-7.5,6.3s-6.7-3.7-6.3-7.5s3.7-6.7,7.5-6.3C477.2,316.1,480,319.4,479.7,323.3z"
	/>
<path class="st6" d="M499.5,324.9c-0.3,3.8-3.7,6.7-7.5,6.3s-6.7-3.7-6.3-7.5s3.7-6.7,7.5-6.3C496.9,317.7,499.8,321.1,499.5,324.9z
	"/>
<path class="st6" d="M376,240.6l-63.5-5.3c-2.6-0.2-4.9,1.7-5.1,4.3s1.7,4.9,4.3,5.1l63.5,5.3c2.6,0.2,4.9-1.7,5.1-4.3
	C380.6,243.1,378.6,240.8,376,240.6L376,240.6L376,240.6z"/>
<path class="st6" d="M373.9,266.3l-63.5-5.3c-2.6-0.2-4.9,1.7-5.1,4.3c-0.2,1.9,0.8,3.6,2.4,4.5c0.6,0.3,1.2,0.5,1.9,0.6l63.5,5.3
	c2.6,0.2,4.9-1.7,5.1-4.3C378.4,268.8,376.5,266.6,373.9,266.3L373.9,266.3L373.9,266.3z"/>
<path class="st6" d="M371.7,292.1l-63.5-5.3c-2.6-0.2-4.9,1.7-5.1,4.3c-0.2,2.6,1.7,4.9,4.3,5.1l0,0l63.5,5.3
	c2.6,0.2,4.9-1.7,5.1-4.3C376.2,294.6,374.3,292.3,371.7,292.1L371.7,292.1L371.7,292.1z"/>
<path class="st7" d="M358,239.1l-45.4-3.8c-2.6-0.2-4.9,1.7-5.1,4.3s1.7,4.9,4.3,5.1l44.5,3.7c2.8-0.9,4.4-3.9,3.5-6.7
	C359.4,240.7,358.8,239.8,358,239.1L358,239.1z"/>
<path class="st7" d="M334.8,263.1l-24.4-2.1c-2.6-0.2-4.9,1.7-5.1,4.3c-0.2,1.9,0.8,3.6,2.4,4.5l22.5,1.9c3,0.2,5.6-2,5.8-4.9
	C336.1,265.5,335.7,264.1,334.8,263.1z"/>
<path class="st7" d="M367,291.7l-58.7-4.9c-2.6-0.2-4.9,1.7-5.1,4.3c-0.2,2.6,1.7,4.9,4.3,5.1l0,0l59.1,5c2.7-1.3,3.8-4.5,2.5-7.2
	C368.6,293,367.9,292.2,367,291.7L367,291.7z"/>
<path class="st1" d="M531,215.8c5.8-1.3,9.4-7.1,8-12.9c-0.1-0.6-0.3-1.2-0.6-1.8l34.6-90.8l-17.7-4.4l-31.8,89.7
	c-5.3,2.7-7.4,9.2-4.7,14.5C521.1,214.7,526.1,217,531,215.8L531,215.8z"/>
<path class="st2" d="M574.7,128.6c-0.8,0-1.5-0.2-2.3-0.5l0,0l-22-10.3c-2.7-1.2-3.8-4.4-2.6-7.1c0.1-0.2,0.2-0.5,0.4-0.7l13.4-20.2
	c1.5-3.3,4.3-5.8,7.8-7c7.2-2.6,15.2,1.1,17.8,8.3c1.3,3.5,1.1,7.3-0.5,10.6l-6.9,23.1C579.1,127.1,577.1,128.6,574.7,128.6
	L574.7,128.6z"/>
<path class="st1" d="M560.5,217.4c5.9-0.2,10.6-5.2,10.4-11.1c0-0.6-0.1-1.3-0.2-1.9l56.2-80.1l-16.8-9l-52.9,80.9
	c-5.7,1.6-9.1,7.6-7.5,13.3C551,214.3,555.5,217.6,560.5,217.4L560.5,217.4z"/>
<path class="st2" d="M621.3,140.4c-1.1,0-2.2-0.4-3.1-1L598.6,125c-2.4-1.7-2.9-5.1-1.1-7.4c0.2-0.2,0.3-0.4,0.5-0.6l17-17.3
	c2.2-2.9,5.4-4.9,9-5.4c7.6-1.2,14.7,4,15.8,11.6c0.6,3.6-0.4,7.3-2.5,10.3L626,137.6C625.1,139.3,623.3,140.4,621.3,140.4z"/>
<path class="st8" d="M265.6,198.2c-5.2-1.9-7.9-7.7-6-12.9c0.2-0.6,0.5-1.1,0.7-1.6l-23.4-27l18.4-2.4l19.4,26
	c4.6,3.1,5.9,9.4,2.8,14C274.9,198.2,270,199.8,265.6,198.2L265.6,198.2z"/>
<path class="st8" d="M133.9,203.9c-3.7-4.2-3.2-10.5,0.9-14.2c0.4-0.4,0.9-0.7,1.4-1l-7.4-35l17.3,6.8l4.4,32.2
	c2.6,5,0.6,11.1-4.3,13.6C142,208.4,137,207.4,133.9,203.9z"/>
<polygon class="st8" points="217.6,386.1 229.8,386.1 235.7,338.8 217.6,338.8 "/>
<path class="st0" d="M214.4,382.1h24.1l0,0c8.5,0,15.4,6.9,15.4,15.4l0,0v0.5h-39.5V382.1z"/>
<polygon class="st8" points="157.6,386.1 169.8,386.1 175.7,338.8 157.6,338.8 "/>
<path class="st0" d="M154.4,382.1h24.1l0,0c8.5,0,15.4,6.9,15.4,15.4l0,0v0.5h-39.5V382.1z"/>
<path class="st2" d="M216.1,361.4c-2.3,0-4.2-1.7-4.5-4l-12.5-103.3c-0.1-0.8-0.8-1.4-1.7-1.3c-0.6,0.1-1.2,0.6-1.3,1.2l-19.9,101.4
	c-0.4,2.1-2.3,3.6-4.4,3.6h-14.6c-2.5,0-4.5-2-4.5-4.5v-0.1l2.9-156.2l0.2-0.1c21.3-12.7,46.5-13.5,76.9-2.5l0.3,0.1l5,160.3
	c0.1,2.5-1.9,4.5-4.3,4.6l-17.4,0.7C216.2,361.4,216.2,361.4,216.1,361.4z"/>
<circle class="st8" cx="199.4" cy="30.5" r="24.6"/>
<path class="st9" d="M256.3,178.9c-1.3,0.2-2.5-0.2-3.5-1l-25.2-21.1c-8.6-7.2-14.3-17.3-16-28.4l-5.7-36.6
	c-2.9-7.5,0.8-15.9,8.2-18.8c7.5-2.9,15.9,0.8,18.8,8.2l0,0l12,57.5l19.1,26c1.1,1.5,1.2,3.6,0.1,5.2l-4.7,7.1
	c-0.5,0.8-1.2,1.3-2.1,1.7C256.9,178.8,256.6,178.9,256.3,178.9z"/>
<path class="st9" d="M134,180.8c-1.1-0.7-1.8-1.8-2-3.1l-4.9-32.5c-1.7-11.1,0.7-22.5,6.8-31.9l19.9-31.2
	c2.7-7.5,11.1-11.4,18.6-8.7c7.5,2.7,11.4,11.1,8.7,18.6l0,0l-29,51.1l-2.8,32.1c-0.2,1.9-1.5,3.5-3.3,4l-8.3,2.2
	c-0.9,0.2-1.8,0.2-2.7-0.1C134.6,181.1,134.3,181,134,180.8z"/>
<path class="st9" d="M226.3,74.1c-8.5-9.4-20.9-14.4-33.5-13.6c-0.4,0-0.8,0.1-1.2,0.1l0,0c-12,0.9-23,7-30.2,16.6
	c-7.3,9.8-10,22.2-7.5,34.1c4.8,22.5,3.6,45.9-3.5,67.9l-6.6,20.5c-0.8,2.4,0.5,4.9,2.9,5.7c0.4,0.1,0.8,0.2,1.1,0.2l33.7,1.8
	l8.6-14.9v15.4l40.9,2.2c0.1,0,0.2,0,0.2,0c2.5,0,4.5-2,4.5-4.5c0-0.1,0-0.2,0-0.4l-4.6-57.4l5.8-39
	C238.8,96.3,234.9,83.5,226.3,74.1z"/>
<path class="st0" d="M182.3,53.9c2.3,1.3,11.3,2.2,11.9-0.4v-0.1c0.4-1.9,0.1-3.8-0.1-5.7s0.1-4,1.4-5.4c2.4-2.6,6.7-1.2,10.3-1.9
	c4.3-0.9,7.1-4.9,6.7-9.3c0-0.4-0.1-0.8-0.2-1.2c-0.8-3.6,1.5-7.2,5.1-7.9c0.6-0.1,1.2-0.2,1.8-0.1c3.5,0.2,7.4,1.3,10.3-1.4
	c2.3-2,2.8-7.3,1.8-10.2c-1.6-4.8-12.3-7.3-17-8.7c-11.7-3.4-24.4-1.3-34.4,5.6c-3,2.1-5.7,4.7-7,8.1s-0.7,7.7,2.2,9.9
	c-4.5,4.8-6.1,11.5-4.2,17.8C172.2,47.6,179,52,182.3,53.9z"/>
<path class="st3" d="M791,398.6H1c-0.6,0-1-0.4-1-1s0.4-1,1-1h790c0.6,0,1,0.4,1,1S791.6,398.6,791,398.6z"/>
<path class="st10" d="M714.7,218.9L714.7,218.9c-6.3,0.5-11.7-4.2-12.2-10.4c-0.5-6.3,4.2-11.7,10.4-12.2
	c6.3-0.5,11.7,4.2,12.2,10.4S721,218.4,714.7,218.9z M714.6,217.2L714.6,217.2c5.3-0.4,9.2-5.1,8.8-10.4s-5.1-9.2-10.4-8.8
	c-5.3,0.4-9.2,5.1-8.8,10.4S709.3,217.6,714.6,217.2L714.6,217.2z"/>
<circle class="st10" cx="753.8" cy="182.8" r="7"/>
<circle class="st10" cx="788.2" cy="160.8" r="3.7"/>
<path class="st10" d="M401.3,137c5.3-3.4,12.3-1.8,15.7,3.5c3.4,5.3,1.8,12.3-3.5,15.7s-12.3,1.8-15.7-3.5l0,0l0,0
	C394.5,147.4,396.1,140.4,401.3,137z M412.6,154.7c4.5-2.9,5.8-8.8,2.9-13.3s-8.8-5.8-13.3-2.9c-4.5,2.9-5.8,8.8-2.9,13.3l0,0l0,0
	C402.2,156.2,408.2,157.5,412.6,154.7L412.6,154.7z"/>
<circle class="st10" cx="403" cy="99.7" r="7"/>
<circle class="st10" cx="399.8" cy="59.1" r="3.7"/>
<path class="st10" d="M92.1,265.7c-3.5-5.2-2.2-12.3,3-15.8s12.3-2.2,15.8,3s2.2,12.3-3,15.8l0,0C102.7,272.2,95.6,270.9,92.1,265.7
	z M109.4,253.9c-3-4.4-9-5.5-13.4-2.5s-5.5,9-2.5,13.4s9,5.5,13.4,2.5l0,0l0,0C111.2,264.3,112.4,258.3,109.4,253.9L109.4,253.9z"/>
<circle class="st10" cx="54.7" cy="265.1" r="7"/>
<circle class="st10" cx="14.2" cy="269.5" r="3.7"/>
</svg>
